<?xml version="1.0" encoding="utf-8"?>
<!-- Generator: Adobe Illustrator 24.1.2, SVG Export Plug-In . SVG Version: 6.00 Build 0)  -->
<svg version="1.1" id="timer" xmlns="http://www.w3.org/2000/svg" xmlns:xlink="http://www.w3.org/1999/xlink" x="0px" y="0px"
	 viewBox="0 0 32 32" style="enable-background:new 0 0 32 32;" xml:space="preserve">
<style type="text/css">
	.st0{fill:#FFFFFF;}
</style>
<path id="icon" class="st0" d="M16,31.8C7.2,31.8,0.1,24.7,0.1,16c0-8.8,7-15.9,15.8-15.9c8.8,0,15.9,7.1,15.9,15.9
	C31.8,24.8,24.7,31.8,16,31.8z M17.2,11.7c0-1.2,0-2.4,0-3.6c0-0.7-0.5-1.2-1.2-1.2c-0.7,0-1.2,0.5-1.2,1.2c0,2.6,0,5.2,0,7.9
	c0,0.3,0.1,0.6,0.3,0.8c1.6,1.6,3.2,3.2,4.8,4.8c0.3,0.3,0.7,0.4,1.1,0.3c0.9-0.3,1.2-1.3,0.5-2c-1.4-1.4-2.7-2.7-4.1-4.1
	c-0.2-0.2-0.3-0.4-0.3-0.6C17.2,14,17.2,12.8,17.2,11.7z"/>
</svg>
